<mxfile host="app.diagrams.net" agent="Mozilla/5.0 (iPad; CPU OS 18_7 like Mac OS X) AppleWebKit/605.1.15 (KHTML, like Gecko) Version/26.1 Mobile/15E148 Safari/604.1" version="28.2.5">
  <diagram name="Page-1" id="b1z_SGk0qcSzuYTGH72N">
    <mxGraphModel dx="2019" dy="662" grid="1" gridSize="10" guides="1" tooltips="1" connect="1" arrows="1" fold="1" page="0" pageScale="1" pageWidth="827" pageHeight="1169" math="0" shadow="0">
      <root>
        <mxCell id="0" />
        <mxCell id="1" parent="0" />
        <mxCell id="Qmg-OXcCduI9HJO14MK6-3" value="" style="rounded=1;whiteSpace=wrap;html=1;labelBackgroundColor=none;fillColor=#cce5ff;strokeColor=#36393d;fillStyle=auto;opacity=25;glass=0;" parent="1" vertex="1">
          <mxGeometry x="160" y="320" width="280" height="440" as="geometry" />
        </mxCell>
        <mxCell id="LiJ_0zRqStjZs383BL51-2" value="DAC Front" style="rounded=1;whiteSpace=wrap;html=1;glass=0;opacity=50;" vertex="1" parent="1">
          <mxGeometry x="225" y="370" width="150" height="150" as="geometry" />
        </mxCell>
        <mxCell id="LiJ_0zRqStjZs383BL51-3" value="DAC Rear" style="rounded=1;whiteSpace=wrap;html=1;glass=0;opacity=50;" vertex="1" parent="1">
          <mxGeometry x="225" y="560" width="150" height="150" as="geometry" />
        </mxCell>
        <mxCell id="LiJ_0zRqStjZs383BL51-9" value="" style="rounded=1;whiteSpace=wrap;html=1;labelBackgroundColor=none;fillColor=#cce5ff;strokeColor=#36393d;fillStyle=auto;opacity=25;glass=0;" vertex="1" parent="1">
          <mxGeometry x="-640" y="320" width="280" height="440" as="geometry" />
        </mxCell>
        <mxCell id="LiJ_0zRqStjZs383BL51-10" value="USB" style="rounded=1;whiteSpace=wrap;html=1;glass=0;opacity=50;" vertex="1" parent="1">
          <mxGeometry x="-575" y="370" width="150" height="150" as="geometry" />
        </mxCell>
        <mxCell id="LiJ_0zRqStjZs383BL51-11" value="PD" style="rounded=1;whiteSpace=wrap;html=1;glass=0;opacity=50;" vertex="1" parent="1">
          <mxGeometry x="-575" y="560" width="150" height="150" as="geometry" />
        </mxCell>
        <mxCell id="LiJ_0zRqStjZs383BL51-13" value="" style="rounded=1;whiteSpace=wrap;html=1;labelBackgroundColor=none;fillColor=#cce5ff;strokeColor=#36393d;fillStyle=auto;opacity=25;glass=0;" vertex="1" parent="1">
          <mxGeometry x="-240" y="320" width="280" height="440" as="geometry" />
        </mxCell>
        <mxCell id="LiJ_0zRqStjZs383BL51-14" value="DSP" style="rounded=1;whiteSpace=wrap;html=1;glass=0;opacity=50;" vertex="1" parent="1">
          <mxGeometry x="-175" y="370" width="150" height="150" as="geometry" />
        </mxCell>
        <mxCell id="LiJ_0zRqStjZs383BL51-15" value="ESP32 (BT)" style="rounded=1;whiteSpace=wrap;html=1;glass=0;opacity=50;" vertex="1" parent="1">
          <mxGeometry x="-160" y="580" width="150" height="150" as="geometry" />
        </mxCell>
      </root>
    </mxGraphModel>
  </diagram>
</mxfile>
